<?xml version="1.0" standalone="no"?>
<!DOCTYPE svg PUBLIC "-//W3C//DTD SVG 20010904//EN"
 "http://www.w3.org/TR/2001/REC-SVG-20010904/DTD/svg10.dtd">
<svg version="1.0" xmlns="http://www.w3.org/2000/svg"
 width="500.000000pt" height="501.000000pt" viewBox="0 0 500.000000 501.000000"
 preserveAspectRatio="xMidYMid meet">

<g transform="translate(0.000000,501.000000) scale(0.100000,-0.100000)"
fill="#ffffff" stroke="none">
<path d="M2374 4218 l-21 -63 -61 3 c-34 2 -62 0 -62 -5 0 -5 20 -24 45 -43
25 -19 45 -39 45 -45 0 -6 -7 -33 -16 -59 -9 -26 -14 -49 -12 -52 3 -2 26 12
53 31 27 18 53 31 59 28 6 -4 28 -20 49 -36 21 -16 40 -27 44 -24 3 3 -2 27
-11 53 -9 26 -16 52 -16 58 0 6 23 27 51 46 l52 35 -66 3 -66 3 -17 57 c-10
31 -21 60 -24 65 -3 4 -15 -21 -26 -55z"/>
<path d="M1956 4204 c-3 -9 -6 -37 -6 -63 l0 -48 -60 -13 c-33 -7 -60 -16 -60
-20 0 -4 24 -16 53 -27 l52 -20 0 -67 c0 -36 2 -66 5 -66 3 0 21 20 40 45 19
24 40 44 47 45 7 0 35 -9 63 -20 28 -11 53 -20 56 -20 2 0 -11 25 -31 56 l-36
56 34 41 c53 66 53 67 -5 51 -29 -7 -59 -14 -66 -14 -7 0 -27 23 -44 50 -17
28 -32 50 -33 50 -2 0 -6 -7 -9 -16z"/>
<path d="M2801 4165 c-19 -27 -36 -52 -37 -54 -2 -2 -30 4 -62 13 -32 9 -62
16 -66 16 -4 0 8 -19 27 -42 50 -64 51 -64 19 -110 -47 -71 -48 -70 10 -48 29
11 60 20 68 20 8 0 31 -22 50 -47 l35 -47 3 67 3 66 60 22 c33 12 58 23 56 25
-2 2 -30 12 -63 22 l-59 18 -5 64 -5 65 -34 -50z"/>
<path d="M1554 4025 c4 -22 10 -52 13 -67 5 -24 -1 -30 -53 -60 l-59 -33 67
-9 67 -9 11 -56 c6 -31 13 -60 14 -66 2 -5 17 17 34 51 l30 60 59 -6 c32 -4
60 -5 63 -3 3 2 -17 23 -43 46 l-47 42 25 54 c14 30 23 56 21 59 -3 2 -25 -7
-50 -22 -24 -14 -49 -26 -56 -26 -6 0 -31 19 -57 43 l-46 42 7 -40z"/>
<path d="M3188 3998 l-47 -40 -56 32 c-56 32 -57 32 -50 9 4 -13 14 -36 21
-51 22 -42 18 -53 -33 -98 l-48 -42 67 6 68 7 28 -63 29 -63 14 65 14 65 68
10 68 10 -55 33 c-31 18 -56 37 -56 42 0 5 5 32 11 60 6 28 9 53 7 55 -1 1
-24 -15 -50 -37z"/>
<path d="M1358 3784 l-45 -46 -53 27 c-28 14 -54 24 -57 22 -2 -3 8 -29 22
-57 l27 -53 -49 -49 -48 -49 40 6 c22 3 52 9 67 11 25 5 30 0 55 -50 15 -31
30 -56 34 -56 4 0 10 27 14 60 6 51 10 61 28 64 12 3 42 8 67 13 l45 9 -55 28
c-30 16 -56 30 -58 31 -2 2 2 31 8 65 6 34 10 64 8 66 -2 2 -24 -17 -50 -42z"/>
<path d="M3385 3739 l6 -67 -57 -28 c-63 -31 -60 -36 29 -49 l45 -7 9 -66 9
-67 33 58 34 59 46 -7 c25 -3 55 -9 65 -12 16 -4 14 2 -12 34 -17 22 -38 46
-46 52 -13 11 -11 19 14 65 17 29 30 56 30 59 0 4 -26 -6 -57 -22 l-58 -29
-49 46 -48 47 7 -66z"/>
<path d="M2255 3649 c-124 -11 -287 -43 -357 -69 -117 -44 -158 -89 -158 -175
0 -63 26 -108 80 -135 22 -11 40 -24 40 -28 0 -4 -27 -137 -60 -297 -104 -502
-190 -916 -212 -1022 -11 -56 -18 -113 -14 -128 8 -32 60 -65 104 -65 37 0 78
34 86 72 3 12 24 115 47 228 23 113 45 208 48 212 4 4 40 -3 81 -16 83 -27
203 -46 284 -46 l53 0 6 -182 c4 -99 7 -235 7 -300 0 -142 11 -171 68 -189 48
-14 107 8 121 44 5 13 7 154 4 325 l-6 302 29 0 c65 0 230 31 312 59 48 16 87
28 88 28 0 -1 25 -105 55 -232 61 -260 70 -278 137 -278 48 0 89 24 102 59 10
25 3 56 -250 1103 -44 183 -80 340 -80 347 0 7 18 23 40 34 76 39 106 126 72
203 -23 51 -46 69 -125 97 -126 44 -406 67 -602 49z m611 -228 c-9 -10 -47
-32 -85 -50 -239 -110 -638 -117 -848 -14 -29 15 -61 35 -70 46 -10 11 -13 18
-8 16 6 -3 31 -15 58 -27 219 -100 667 -91 902 18 73 35 72 34 51 11z m-179
-248 c6 -27 41 -175 79 -330 37 -156 65 -285 62 -288 -3 -3 -30 1 -61 9 -31 8
-110 20 -177 27 l-120 12 0 297 0 298 73 10 c136 18 133 19 144 -35z m-495 22
l77 -7 3 -291 c2 -161 -1 -295 -5 -298 -5 -4 -44 -9 -87 -13 -43 -3 -119 -17
-169 -29 -62 -16 -91 -19 -91 -12 0 14 128 634 135 653 3 9 15 12 32 8 16 -2
63 -8 105 -11z m88 -809 l0 -84 -62 5 c-134 9 -308 51 -308 73 0 25 213 80
348 89 21 1 22 -2 22 -83z m431 59 c38 -8 86 -22 106 -31 37 -15 37 -16 18
-30 -37 -28 -238 -74 -321 -74 l-34 0 -1 55 c-1 30 -1 64 -1 75 0 11 0 23 1
26 1 10 151 -4 232 -21z"/>
<path d="M1082 3475 l-32 -53 -58 14 c-31 7 -61 13 -65 14 -5 0 11 -23 35 -51
l43 -51 -33 -59 -33 -60 33 14 c18 8 46 21 62 28 28 13 30 12 73 -36 l44 -50
-3 65 -2 65 59 29 60 29 -65 16 -65 16 -5 57 c-3 31 -8 59 -10 62 -3 3 -20
-19 -38 -49z"/>
<path d="M3657 3493 c-4 -3 -7 -19 -7 -33 0 -15 -3 -41 -6 -58 -6 -28 -10 -31
-72 -43 l-66 -12 62 -31 62 -30 -6 -66 -5 -65 45 48 46 49 56 -26 c31 -14 59
-26 61 -26 3 0 -9 25 -26 56 l-32 55 43 51 43 51 -45 -7 c-25 -4 -54 -9 -65
-12 -16 -4 -26 6 -51 51 -17 30 -33 52 -37 48z"/>
<path d="M896 3110 c-16 -58 -18 -60 -50 -60 -19 0 -48 -3 -65 -6 l-32 -7 51
-34 c27 -18 50 -39 50 -47 0 -7 -7 -35 -15 -61 -8 -27 -12 -51 -10 -53 2 -3
26 14 53 36 l49 41 52 -35 c29 -20 54 -34 56 -32 3 2 -5 30 -17 62 l-22 59 25
20 c13 10 38 30 54 44 l30 24 -69 -3 -70 -3 -21 52 c-11 28 -23 54 -26 58 -4
3 -14 -22 -23 -55z"/>
<path d="M3835 3104 c-38 -95 -28 -87 -103 -80 l-67 6 52 -47 52 -48 -24 -57
c-13 -32 -21 -58 -18 -58 3 0 28 14 55 30 26 17 51 30 54 30 4 0 28 -18 55
-41 27 -22 49 -37 49 -32 0 4 -7 33 -15 63 -8 30 -15 56 -15 58 0 1 26 19 58
40 l57 37 -69 5 -70 5 -13 59 c-7 33 -15 62 -18 64 -3 3 -12 -12 -20 -34z"/>
<path d="M810 2707 l0 -64 -62 -17 c-34 -9 -57 -21 -52 -25 5 -5 33 -16 62
-26 l52 -17 0 -66 1 -67 22 30 c12 16 31 40 42 53 l20 23 59 -21 c33 -11 61
-20 64 -20 2 0 -12 23 -32 50 -20 28 -36 55 -36 60 0 5 17 33 37 61 35 49 35
51 12 44 -13 -5 -43 -14 -66 -21 l-41 -13 -34 49 c-18 27 -36 50 -40 50 -5 0
-8 -29 -8 -63z"/>
<path d="M3907 2692 c-21 -28 -42 -52 -46 -52 -4 0 -33 9 -64 19 -32 11 -57
18 -57 15 0 -2 16 -26 35 -53 19 -26 35 -51 35 -55 0 -4 -16 -28 -35 -53 -19
-25 -34 -48 -32 -49 2 -2 25 3 52 11 68 21 70 20 106 -30 18 -25 36 -45 41
-45 4 0 8 29 8 64 l0 64 33 6 c17 4 46 13 62 20 l30 13 -60 20 -60 20 -5 69
-5 69 -38 -53z"/>
<path d="M826 2323 c4 -21 11 -48 15 -61 8 -20 2 -27 -49 -60 l-57 -37 45 -3
c81 -4 88 -9 100 -55 23 -87 21 -87 51 -19 l29 63 60 -7 c42 -5 60 -3 60 5 0
6 -3 11 -7 11 -5 1 -25 16 -47 35 l-39 34 23 56 c12 31 21 58 18 60 -2 3 -26
-9 -52 -25 -25 -17 -51 -30 -55 -30 -5 0 -28 16 -51 35 -23 19 -44 35 -46 35
-3 0 -2 -17 2 -37z"/>
<path d="M3878 2288 l-47 -39 -52 35 c-29 20 -55 34 -57 31 -2 -2 6 -30 18
-61 l21 -58 -28 -22 c-15 -12 -39 -31 -53 -43 l-25 -22 68 3 67 4 22 -58 c11
-32 24 -58 27 -58 4 0 14 26 22 58 l15 57 62 3 c34 2 62 7 62 11 0 5 -23 24
-51 41 -34 22 -48 38 -44 48 11 29 28 103 24 106 -2 3 -25 -14 -51 -36z"/>
<path d="M1089 1965 l-45 -46 -57 26 c-31 13 -57 21 -57 17 0 -4 13 -29 29
-56 l29 -50 -46 -53 c-40 -48 -43 -54 -21 -49 13 3 43 10 67 15 l43 9 31 -56
c27 -46 33 -52 39 -36 4 10 8 35 8 54 2 47 9 56 56 64 83 14 83 16 21 48 l-59
30 7 64 c4 35 5 64 4 64 -2 0 -24 -20 -49 -45z"/>
<path d="M3607 1918 l6 -67 -64 -29 -64 -29 66 -12 c63 -12 67 -15 73 -43 3
-17 6 -46 6 -64 0 -19 3 -34 8 -34 4 0 20 23 35 50 30 53 36 56 106 39 24 -5
46 -7 49 -5 3 3 -14 26 -36 50 l-42 45 31 52 c16 28 27 54 24 57 -3 3 -26 -4
-50 -16 -25 -12 -50 -22 -55 -22 -5 0 -29 21 -53 47 l-45 47 5 -66z"/>
<path d="M1297 1656 c-29 -61 -40 -65 -119 -47 -21 5 -38 6 -38 3 0 -4 19 -26
42 -49 l42 -43 -27 -55 c-15 -31 -27 -58 -27 -60 0 -3 22 6 50 20 27 14 55 25
62 25 7 0 31 -19 55 -42 l43 -42 -7 66 -6 66 58 30 59 29 -40 7 c-98 17 -92
14 -99 64 -11 86 -17 89 -48 28z"/>
<path d="M3395 1633 c-11 -72 -18 -80 -80 -88 -30 -3 -55 -10 -55 -14 0 -4 25
-19 56 -34 39 -19 54 -32 50 -42 -3 -8 -8 -38 -12 -67 l-6 -53 49 48 50 49 57
-32 c31 -18 56 -29 56 -26 0 3 -12 30 -27 61 l-27 55 49 51 c43 43 47 50 25
45 -14 -3 -45 -7 -69 -8 -44 -3 -45 -3 -70 49 -14 28 -29 52 -32 52 -4 1 -10
-20 -14 -46z"/>
<path d="M1588 1454 c-4 -6 -10 -29 -14 -51 -3 -22 -9 -45 -13 -51 -4 -6 -36
-15 -71 -19 l-65 -9 58 -33 c31 -18 57 -36 57 -39 -1 -4 -7 -33 -14 -64 -8
-32 -12 -58 -9 -58 2 0 26 18 52 40 l48 41 53 -31 c29 -17 54 -29 56 -27 3 2
-7 28 -21 58 l-25 54 51 48 52 49 -69 -7 -69 -7 -25 59 c-14 32 -29 53 -32 47z"/>
<path d="M3109 1391 l-27 -59 -63 5 -64 5 44 -45 45 -46 -26 -61 c-15 -33 -25
-60 -22 -60 2 0 26 14 52 30 27 17 53 30 57 30 4 0 28 -18 52 -41 25 -22 47
-39 49 -36 3 3 1 22 -5 44 -20 70 -16 80 47 115 l57 33 -68 9 c-61 8 -68 11
-73 35 -12 53 -25 101 -27 101 -1 0 -14 -27 -28 -59z"/>
<path d="M1908 1236 l4 -64 -61 -22 c-34 -13 -61 -24 -61 -26 0 -2 26 -11 58
-20 31 -10 59 -20 62 -22 3 -2 7 -31 10 -65 l5 -62 34 50 c19 28 35 51 37 53
1 2 27 -4 59 -13 31 -9 58 -15 61 -12 2 2 -12 24 -31 48 -19 24 -35 48 -35 53
0 4 14 28 30 53 17 25 29 48 26 51 -3 3 -30 -5 -60 -16 l-55 -21 -38 49 c-21
27 -40 49 -43 50 -3 0 -4 -29 -2 -64z"/>
<path d="M2777 1246 c-21 -25 -44 -46 -52 -46 -7 0 -35 9 -61 20 -26 11 -48
19 -50 17 -2 -2 12 -28 30 -57 l34 -54 -40 -49 c-22 -26 -39 -50 -36 -52 2 -2
28 2 58 10 30 8 58 15 62 15 3 0 22 -25 41 -56 l34 -56 7 70 7 69 59 13 c33 7
60 16 60 19 0 3 -24 15 -52 26 l-53 21 -5 67 -5 68 -38 -45z"/>
<path d="M2272 1159 c11 -33 19 -61 17 -63 -2 -1 -26 -18 -53 -37 l-49 -34 64
-5 64 -5 19 -57 c10 -32 21 -58 25 -58 3 0 15 26 26 58 l20 57 63 -3 c34 -2
62 0 62 5 0 4 -15 18 -33 31 -74 52 -70 43 -46 107 11 31 19 58 17 61 -3 2
-28 -12 -56 -32 l-51 -36 -49 36 c-28 20 -52 36 -55 36 -3 0 4 -27 15 -61z"/>
</g>
</svg>
